# xmcd CD database file
#
# Track frame offsets:
#	150
#	21282
#	34644
#	56319
#	73622
#	92369
#	117341
#	143429
#	170140
#	192784
#	214410
#	241419
#	265425
#	286857
#
# Disc length: 4141 seconds
#
# Revision: 0
# Processed by: cddbd v1.5.2PL0 Copyright (c) Steve Scherf et al.
# Submitted via: CDex 1.51
#
DISCID=c6102b0e
DTITLE=Various Artist - A History of SCHEMA -Midnight Rendezvous-
DYEAR=2007
DGENRE=Jazz
TTITLE0=Open up Your Mind - Gerardo Frisina
TTITLE1=Dreamy Smiles(Radio Edit) - The Dinning Rooms
TTITLE2=Mas eu quer ser - Gerardo Frisina
TTITLE3=Bom Motivo ft. Rosalia De Souza - Toco
TTITLE4=G-Bossa - Neos
TTITLE5=Esquema da Bossa - Quintetto X
TTITLE6=Bluesanova - Gerardo Frisina
TTITLE7=A Child Runs Free - Mario Biondi and the High Five Quintet
TTITLE8=Descarga - Gerardo Frisina
TTITLE9=Kickin' Samba - Soulstance
TTITLE10=forma 2000 - Nicola Conte
TTITLE11=Jet Sounds - Nicola Conte
TTITLE12=Inviolation - Gerardo Frisina
TTITLE13=Delicado - South Copa
EXTD=YEAR: 2007
EXTT0=
EXTT1=
EXTT2=
EXTT3=
EXTT4=
EXTT5=
EXTT6=
EXTT7=
EXTT8=
EXTT9=
EXTT10=
EXTT11=
EXTT12=
EXTT13=
PLAYORDER=
